<svg width="1231" height="212" viewBox="0 0 1231 212" fill="none" xmlns="http://www.w3.org/2000/svg">
<path d="M0.375 0H1230.38V143.002V212H0.375V0Z" fill="#1F2251"/>
<path fill-rule="evenodd" clip-rule="evenodd" d="M145.583 212V154.554H122.634V121.734H99.683V89.003H76.7315V121.734H53.8569V154.555H76.729V187.285H53.8544V154.554H30.9029V187.285H7.95146V154.555H30.8986V121.734H53.7741V89.003H30.8986V121.734H7.94804V154.554L0.375 154.555V212H145.583ZM76.7315 121.734H99.683V154.555H122.632V187.285H99.6804V154.554H76.7315V121.734Z" fill="#393D84"/>
<path fill-rule="evenodd" clip-rule="evenodd" d="M1042.46 0H1230.38V143.002H1086.17V122.029H1061.45V101.41H1042.46V0Z" fill="#393D84"/>
</svg>
